<?xml version="1.0" standalone="no"?><!DOCTYPE svg PUBLIC "-//W3C//DTD SVG 1.1//EN" "http://www.w3.org/Graphics/SVG/1.1/DTD/svg11.dtd"><svg t="1631939163057" class="icon" viewBox="0 0 1024 1024" version="1.1" xmlns="http://www.w3.org/2000/svg" p-id="3059" xmlns:xlink="http://www.w3.org/1999/xlink" width="200" height="200"><defs><style type="text/css"></style></defs><path d="M931.5328 140.1856h-819.2c-32.314514 0-74.5472 3.657143-74.5472 63.575771v614.4c0 32.314514 8.235886 53.4528 59.918629 53.4528h833.828571c32.314514 0 42.481371-21.138286 42.481371-53.4528v-614.4c0-32.314514-10.166857-63.575771-42.481371-63.575771z m-16.032914 58.514286v73.142857h-819.2v-73.142857h819.2z m-819.2 614.4v-512h819.2v512h-819.2z" fill="" p-id="3060"></path><path d="M424.053029 359.614171H192.746057c-32.446171 0-37.931886 14.628571-37.931886 46.357943v307.2c0 16.149943 7.138743 26.784914 23.303315 26.784915h245.950171c16.149943 0 23.332571 3.9936 23.332572-12.156343v-321.828572c-0.014629-16.164571 6.392686-46.357943-23.3472-46.357943z m-5.924572 351.085715h-234.057143v-321.828572h234.057143v321.828572zM488.842971 388.871314h175.542858a14.628571 14.628571 0 1 0 0-29.257143h-175.542858a14.628571 14.628571 0 1 0 0 29.257143zM854.557257 359.614171h-131.657143a14.628571 14.628571 0 1 0 0 29.257143h131.657143a14.628571 14.628571 0 1 0 0-29.257143zM488.842971 462.014171h87.771429a14.628571 14.628571 0 1 0 0-29.257142h-87.771429a14.628571 14.628571 0 1 0 0 29.257142zM210.900114 257.214171h14.628572a14.628571 14.628571 0 1 0 0-29.257142h-14.628572a14.628571 14.628571 0 1 0 0 29.257142zM781.4144 257.214171h14.628571a14.628571 14.628571 0 1 0 0-29.257142h-14.628571a14.628571 14.628571 0 1 0 0 29.257142zM737.528686 432.757029h-102.4a14.628571 14.628571 0 1 0 0 29.257142h102.4a14.628571 14.628571 0 1 0 0-29.257142zM488.842971 535.157029h146.285715a14.628571 14.628571 0 1 0 0-29.257143h-146.285715a14.628571 14.628571 0 1 0 0 29.257143zM679.0144 520.528457a14.628571 14.628571 0 0 0 14.628571 14.628572h102.4a14.628571 14.628571 0 1 0 0-29.257143h-102.4a14.628571 14.628571 0 0 0-14.628571 14.628571zM854.557257 432.757029h-58.514286a14.628571 14.628571 0 1 0 0 29.257142h58.514286a14.628571 14.628571 0 1 0 0-29.257142zM488.842971 652.1856h117.028572a14.628571 14.628571 0 1 0 0-29.257143h-117.028572a14.628571 14.628571 0 1 0 0 29.257143zM854.557257 622.928457h-190.171428a14.628571 14.628571 0 1 0 0 29.257143h190.171428a14.628571 14.628571 0 1 0 0-29.257143zM708.271543 696.071314h-219.428572a14.628571 14.628571 0 1 0 0 29.257143h219.428572a14.628571 14.628571 0 1 0 0-29.257143zM854.557257 696.071314h-87.771428a14.628571 14.628571 0 1 0 0 29.257143h87.771428a14.628571 14.628571 0 1 0 0-29.257143z" fill="" p-id="3061"></path></svg>